<svg width="1440" height="293" viewBox="0 0 1440 293" fill="none" xmlns="http://www.w3.org/2000/svg">
<path fill-rule="evenodd" clip-rule="evenodd" d="M0 134.133L40 148.578C80 164.055 160 193.977 240 178.5C320 164.055 400 104.211 480 67.0665C560 29.922 640 15.4769 720 37.1445C800 59.8439 880 119.688 960 148.578C1040 178.5 1120 178.5 1200 148.578C1280 119.688 1360 59.8439 1400 29.922L1440 0V357H1400C1360 357 1280 357 1200 357C1120 357 1040 357 960 357C880 357 800 357 720 357C640 357 560 357 480 357C400 357 320 357 240 357C160 357 80 357 40 357H0V134.133Z" fill="#2A1266"/>
</svg>
